PathFileType	4	(X/Y/Z)	C:\Users\Basilio\Documents\Thesis Gigler\squatting_fais\c3dfiles\054\SJ_pre1\markers_experimental.trc
DataRate	CameraRate	NumFrames	NumMarkers	Units	OrigDataRate	OrigDataStartFrame	OrigNumFrames
200.000000	200.000000	4	61	mm	200.000000	738	1968
Frame#	Time	FHD			LBHD			RBHD			C7			T10			CLAV			LSHO			LUUPA			LMUPA			LDUPA			LLEP			LMEP			LRAD			LUL			LRFIN			RSHO			RUPA1			RMUPA			RDUPA			RLEP			RMEP			RRAD			RUL			RUFIN			LASI			RASI			USACR			LSACR			RSACR			LTHI1			LTHI2			LTHI3			LTHI4			LLFC			LMFC			LTIB1			LTIB2			LTIB3			LTIB4			LLMAL			LMMAL			LHEE			LMT1			LMT2			LMT5			RTHI			RTHI2			RTHI3			RTHI4			RLFC			RMFC			RTIB1			RTIB2			RTIB3			RTIB4			RLMAL			RMMAL			RHEE			RMT1			RMT2			RMT5			
		X1	Y1	Z1	X2	Y2	Z2	X3	Y3	Z3	X4	Y4	Z4	X5	Y5	Z5	X6	Y6	Z6	X7	Y7	Z7	X8	Y8	Z8	X9	Y9	Z9	X10	Y10	Z10	X11	Y11	Z11	X12	Y12	Z12	X13	Y13	Z13	X14	Y14	Z14	X15	Y15	Z15	X16	Y16	Z16	X17	Y17	Z17	X18	Y18	Z18	X19	Y19	Z19	X20	Y20	Z20	X21	Y21	Z21	X22	Y22	Z22	X23	Y23	Z23	X24	Y24	Z24	X25	Y25	Z25	X26	Y26	Z26	X27	Y27	Z27	X28	Y28	Z28	X29	Y29	Z29	X30	Y30	Z30	X31	Y31	Z31	X32	Y32	Z32	X33	Y33	Z33	X34	Y34	Z34	X35	Y35	Z35	X36	Y36	Z36	X37	Y37	Z37	X38	Y38	Z38	X39	Y39	Z39	X40	Y40	Z40	X41	Y41	Z41	X42	Y42	Z42	X43	Y43	Z43	X44	Y44	Z44	X45	Y45	Z45	X46	Y46	Z46	X47	Y47	Z47	X48	Y48	Z48	X49	Y49	Z49	X50	Y50	Z50	X51	Y51	Z51	X52	Y52	Z52	X53	Y53	Z53	X54	Y54	Z54	X55	Y55	Z55	X56	Y56	Z56	X57	Y57	Z57	X58	Y58	Z58	X59	Y59	Z59	X60	Y60	Z60	X61	Y61	Z61	

739	3.69	-199.6344604492188	1761.981079101563	-907.367126464844	-343.8136901855469	1673.644897460938	-980.915710449219	-363.1701049804688	1668.599853515625	-842.2290649414065	-381.2399597167969	1533.60498046875	-900.296325683594	-437.6402282714845	1196.38037109375	-909.9165649414065	-243.1026458740235	1460.5810546875	-901.427917480469	-293.6172485351563	1523.632934570313	-1063.000610351563	-401.9465637207032	1401.951538085938	-1234.407104492188	-365.5266418457032	1364.0380859375	-1242.987060546875	-414.0486450195314	1348.164306640625	-1277.199829101563	-412.9960327148439	1283.085083007813	-1297.96728515625	-486.8091735839845	1271.044311523438	-1248.953125	-388.395721435547	1075.542724609375	-1135.658081054688	-353.3392333984376	1033.85302734375	-1189.414306640625	-327.6549682617188	1080.241455078125	-1105.2578125	-288.1352233886719	1521.88916015625	-737.3490600585939	-394.9454345703126	1392.763549804688	-563.2702636718751	-372.7271118164063	1349.224365234375	-558.5554809570314	-423.6045837402345	1339.375854492188	-526.9466552734376	-435.9654235839845	1290.099365234375	-511.1997985839845	-503.0829467773439	1288.701049804688	-567.0646972656251	-418.587371826172	1083.042236328125	-695.5974731445314	-380.3299865722657	1048.872802734375	-633.8905029296876	-351.7133178710938	1094.684204101563	-715.8739013671876	-248.059799194336	1008.961303710938	-1030.960083007813	-254.7948303222657	1014.363342285156	-775.6235351562502	-439.8801269531251	1102.689575195313	-908.1863403320315	-444.8435363769532	1071.159790039063	-935.8091430664065	-444.9815673828126	1070.1728515625	-879.611267089844	-366.9105224609376	800.140319824219	-1142.924926757813	-335.4525756835938	721.9740600585939	-1157.445678710938	-288.5202331542969	726.8118286132814	-1157.07373046875	-363.9434509277344	667.9616699218751	-1146.720336914063	-356.9817199707032	511.1734313964845	-1149.715698242188	-298.6313781738282	483.2872924804689	-1031.91748046875	-316.7208862304688	341.3675231933594	-1144.136474609375	-382.5196838378907	308.2860412597657	-1195.371215820313	-338.5663452148438	299.8629150390626	-1180.650390625	-341.8226013183594	217.742416381836	-1159.785522460938	-414.943084716797	90.4251174926758	-1212.06298828125	-369.0921936035157	99.15242004394534	-1125.141357421875	-473.5534667968751	51.53050613403322	-1151.7255859375	-251.8842468261719	55.07962036132814	-1169.664672851563	-253.5660400390626	58.24254989624025	-1219.964599609375	-309.8501586914063	34.98168563842774	-1265.47802734375	-375.5484924316407	730.6035156250001	-687.7110595703126	-341.4089355468751	675.5260009765626	-677.4706420898439	-308.6309204101563	675.2681274414064	-677.4411010742189	-368.8799438476563	597.0608520507814	-693.8369750976564	-380.0882873535157	504.3607177734376	-689.4201660156251	-304.4226379394532	493.2601013183595	-801.8162231445315	-335.5308837890626	394.259979248047	-669.4887695312501	-417.0035705566407	329.2718200683594	-645.8179931640626	-371.4416198730469	318.4499206542969	-644.8355712890626	-355.2524414062501	265.0317993164063	-659.4624023437501	-427.3070373535157	93.30150604248048	-630.1621093750001	-372.0498352050782	99.80705261230472	-708.4601440429689	-474.7935485839845	47.44707489013673	-694.0387573242189	-250.593490600586	52.39290237426759	-652.9550781250001	-262.1378173828126	56.09469604492189	-606.7390747070314	-318.6429443359376	34.18684387207032	-568.2393798828126	
740	3.695	-199.749252319336	1762.043334960938	-907.3824462890627	-343.9658203125001	1673.61572265625	-980.8836059570315	-363.1822509765626	1668.57861328125	-842.198669433594	-381.1967468261719	1533.578125	-900.2674560546877	-437.5140380859376	1196.348388671875	-909.9414672851565	-243.0797576904297	1460.582153320313	-901.4670410156252	-293.5747985839844	1523.602661132813	-1063.112915039063	-401.8255920410157	1401.770874023438	-1234.30126953125	-365.5059204101563	1363.776489257813	-1242.982666015625	-413.8061523437501	1347.795043945313	-1277.198486328125	-412.972869873047	1282.81201171875	-1297.9033203125	-486.6127929687501	1270.74169921875	-1248.824096679688	-388.1275634765626	1075.17529296875	-1135.496704101563	-353.3690795898438	1033.533935546875	-1189.327758789063	-327.5582580566407	1080.0302734375	-1105.251953125	-287.9838867187501	1521.82373046875	-737.4180297851564	-394.7946166992189	1392.672241210938	-563.2286987304689	-372.4409484863282	1349.118286132813	-558.5331420898439	-423.2107543945314	1339.241821289063	-526.9523315429689	-435.3652343750001	1289.96044921875	-511.2640991210939	-502.8203430175782	1288.570678710938	-566.9598388671876	-418.3718566894532	1082.929321289063	-695.6555175781251	-379.8439636230469	1048.593383789063	-634.0980834960939	-351.4406738281251	1094.591186523438	-715.9813232421876	-248.1846008300782	1008.595458984375	-1031.00830078125	-254.5436401367188	1014.07568359375	-775.7535400390627	-439.6855773925782	1102.790771484375	-908.2341918945315	-444.7599487304689	1071.2666015625	-935.8916015625002	-444.8515014648439	1070.266845703125	-879.653747558594	-366.8091735839844	800.1025390625002	-1142.9365234375	-335.3226623535157	721.9075317382814	-1157.557495117188	-288.4487915039063	726.7924194335939	-1157.17529296875	-363.7823486328126	667.9421997070314	-1146.816040039063	-356.9585876464844	511.1444396972657	-1149.802856445313	-298.3963012695313	483.2599182128907	-1032.1181640625	-316.6239318847657	341.1181030273438	-1144.288818359375	-382.2565002441407	308.3388671875001	-1195.517211914063	-338.5134887695313	299.8108825683594	-1180.73779296875	-341.8278808593751	217.7122039794922	-1159.935180664063	-414.9406127929689	90.4609832763672	-1212.034790039063	-369.0360412597657	99.14723968505862	-1125.103637695313	-473.5550842285157	51.55570602416994	-1151.66650390625	-251.8616943359376	55.09089279174806	-1169.69482421875	-253.5461425781251	58.23411560058595	-1219.9638671875	-309.8413085937501	34.9665870666504	-1265.490234375	-375.3815307617188	730.5374145507814	-687.6547851562501	-341.0587768554688	675.4376831054689	-677.3670043945314	-308.2462158203126	675.3671264648439	-677.4404907226564	-368.5659179687501	597.0272216796876	-693.7293090820314	-379.3237915039063	504.2772827148439	-689.2048950195314	-303.9742736816407	493.0762939453126	-801.494323730469	-334.9123840332032	394.1331176757814	-669.2719726562501	-416.5164794921876	329.2322387695313	-645.5537719726564	-371.2397460937501	318.3412780761719	-644.6847534179689	-354.9859008789063	264.8834533691407	-659.3568725585939	-427.216522216797	93.31775665283205	-630.1809692382814	-372.0084838867188	99.7763366699219	-708.4956054687501	-474.8402709960939	47.4758644104004	-694.0277709960939	-250.5987854003907	52.35401916503908	-652.9533081054689	-262.1034240722657	56.10461807250978	-606.7821655273439	-318.6473999023438	34.18071365356446	-568.2544555664064	
741	3.7	-199.8456726074219	1762.0966796875	-907.416442871094	-343.9237365722657	1673.583740234375	-980.884460449219	-363.1211547851563	1668.536376953125	-842.1629638671877	-381.2022705078126	1533.503784179688	-900.2557373046877	-437.4150695800782	1196.307739257813	-909.9255371093752	-243.0864410400391	1460.613891601563	-901.515319824219	-293.4110107421876	1523.542724609375	-1063.166870117188	-401.8323974609376	1401.490600585938	-1234.229370117188	-365.5926818847657	1363.56103515625	-1242.908569335938	-413.8207397460939	1347.409301757813	-1277.0234375	-413.0148010253907	1282.562377929688	-1297.749755859375	-486.5504455566407	1270.460083007813	-1248.744018554688	-387.900848388672	1074.904541015625	-1135.410400390625	-353.3691406250001	1033.2236328125	-1189.298706054688	-327.5508728027344	1079.857421875	-1105.290161132813	-287.8681945800782	1521.779418945313	-737.4248657226564	-394.5243530273439	1392.586547851563	-563.2113037109376	-372.0987243652344	1349.096313476563	-558.5863037109376	-422.832733154297	1339.174072265625	-526.9392700195314	-435.1640625000001	1289.913818359375	-511.2173767089845	-502.4492797851564	1288.45458984375	-566.8869628906251	-418.1596679687501	1082.869140625	-695.7251586914064	-379.5774536132813	1048.551513671875	-634.1395263671876	-351.2743835449219	1094.4462890625	-716.0525512695314	-248.1752471923829	1008.468566894531	-1030.999389648438	-254.4166412353516	1013.911010742188	-775.942321777344	-439.6158142089845	1102.926147460938	-908.2336425781252	-444.7022094726564	1071.432739257813	-935.8970947265627	-444.671600341797	1070.368774414063	-879.7073364257815	-366.7903442382813	800.042419433594	-1142.926025390625	-335.1902465820313	721.8894042968751	-1157.610229492188	-288.6743469238282	726.9659423828126	-1157.40087890625	-363.1756591796876	667.7669677734376	-1146.970581054688	-356.6985168457032	511.127899169922	-1149.98876953125	-298.0863647460938	483.233123779297	-1032.380126953125	-316.5911865234376	341.2782897949219	-1144.2607421875	-382.1234436035157	308.3128662109376	-1195.624267578125	-338.4257202148438	299.7755432128907	-1180.831665039063	-341.7825622558594	217.696029663086	-1159.980224609375	-414.9524536132814	90.48370361328126	-1212.015869140625	-368.9733886718751	99.14488220214847	-1125.060913085938	-473.541961669922	51.56444549560548	-1151.656860351563	-251.8072967529297	55.07531356811525	-1169.670654296875	-253.5433502197266	58.18088531494142	-1219.997802734375	-309.8388366699219	34.99352645874024	-1265.521728515625	-375.0430297851563	730.3644409179689	-687.6715087890626	-340.3884887695313	675.3809204101564	-677.5065307617189	-307.8221435546876	675.3511352539064	-677.4094848632814	-368.1143188476563	597.0419921875001	-693.6225585937501	-378.5877380371094	504.1128540039064	-688.9146118164064	-302.9119873046876	493.1302795410157	-801.2987060546877	-334.3773193359376	393.9295959472657	-669.1907348632814	-416.0229797363282	329.1138000488282	-645.3969726562501	-370.9246520996094	318.3150329589844	-644.6805419921876	-354.6826782226563	264.7788391113282	-659.2994995117189	-427.1524047851564	93.29158782958986	-630.2436523437501	-371.9095458984376	99.77163696289065	-708.5373535156251	-474.7272338867189	47.52385330200196	-694.0795898437501	-250.5798797607422	52.34751892089845	-653.0234985351564	-262.1066284179688	56.1132049560547	-606.7828369140626	-318.6525878906251	34.18342590332032	-568.2540283203126	
742	3.705	-199.8311157226563	1762.145141601563	-907.3981933593752	-344.0364990234376	1673.611938476563	-980.848327636719	-362.9307250976563	1668.5400390625	-842.1072387695315	-381.1184997558594	1533.427978515625	-900.232604980469	-437.2393188476564	1196.264282226563	-909.9099121093752	-243.0462341308594	1460.621459960938	-901.5354614257815	-293.3412475585938	1523.559204101563	-1063.24755859375	-401.8997802734376	1401.407958984375	-1234.182006835938	-365.6835021972657	1363.4345703125	-1242.859619140625	-413.7239990234376	1347.224365234375	-1276.947143554688	-412.951141357422	1282.392578125	-1297.652954101563	-486.5415344238282	1270.289184570313	-1248.547241210938	-388.0043334960939	1074.750122070313	-1135.404907226563	-353.4274597167969	1032.974609375	-1189.2255859375	-327.5261230468751	1079.73486328125	-1105.278442382813	-287.7139587402344	1521.77685546875	-737.4252929687501	-394.1950683593751	1392.57080078125	-563.2073974609376	-371.7302551269532	1349.141235351563	-558.5535278320314	-422.6026306152345	1339.12060546875	-526.8852539062501	-434.8912048339845	1289.872314453125	-511.1427001953126	-502.0143127441407	1288.433837890625	-566.8140258789064	-417.8323974609376	1082.830200195313	-695.7617187500001	-379.2974548339844	1048.518432617188	-634.1682128906251	-351.0372314453126	1094.311401367188	-716.0932006835939	-247.8859863281251	1008.578430175781	-1030.96875	-254.3774108886719	1013.804870605469	-776.0043945312502	-439.3260498046876	1102.991821289063	-908.2636718750002	-443.4457092285157	1071.228149414063	-936.0371704101565	-446.6002807617189	1070.753784179688	-879.5213623046877	-366.8950500488282	800.0008544921877	-1142.88720703125	-335.2475280761719	721.8339233398439	-1157.66845703125	-288.3319396972657	726.8241577148439	-1157.412475585938	-363.4716796875001	667.8302001953126	-1146.9501953125	-356.3234863281251	511.0771484375001	-1150.251831054688	-297.6752929687501	483.2177124023439	-1032.689819335938	-316.5584716796876	341.2227783203126	-1144.34033203125	-382.0365905761719	308.2994689941407	-1195.75390625	-338.3708496093751	299.6787719726563	-1180.937133789063	-341.7716064453126	217.6749877929688	-1160.058837890625	-414.9430541992189	90.50495910644533	-1211.973999023438	-368.9431457519532	99.1313400268555	-1125.021606445313	-473.4584960937501	51.54242324829103	-1151.612548828125	-251.7978210449219	55.0826873779297	-1169.650268554688	-253.5339660644532	58.15392303466798	-1219.985595703125	-309.8150939941407	34.90399932861329	-1265.5419921875	-374.8144836425782	730.2131347656251	-687.6664428710939	-340.0537414550782	675.3258056640626	-677.4999389648439	-307.5139465332032	675.3702392578126	-677.3439331054689	-367.5216369628907	596.8330078125001	-693.4739379882814	-378.0660095214844	504.0612792968751	-688.8077392578126	-302.7311706542969	493.1504821777345	-801.0982666015627	-333.8609619140626	393.7714843750001	-669.0632934570314	-415.6484375000001	329.1562500000001	-645.2798461914064	-370.6237487792969	318.2365722656251	-644.6870117187501	-354.2169799804688	264.6914672851563	-659.2981567382814	-427.1644897460939	93.32991027832033	-630.2795410156251	-371.9115600585938	99.7141036987305	-708.5980834960939	-474.7586364746095	47.56448364257813	-694.0898437500001	-250.5275421142579	52.38195037841798	-653.0302734375001	-262.0460510253907	56.11423873901369	-606.7911376953126	-318.6478271484376	34.18721771240235	-568.2726440429689	
